# xmcd
#
# Track frame offsets:
#	150
#	6102
#	17136
#	28135
#	43420
#	57536
#	72408
#	86347
#	100727
#	108608
#	124722
#	140458
#	156580
#	171132
#
# Disc length: 2490 seconds
#
# Revision: 0
# Processed by: cddbd v1.5.2PL0 Copyright (c) Steve Scherf et al.
# Submitted via: dBpowerAMP V4.0
#
DISCID=c509b80e
DTITLE=Jack Johnson - In Between Dreams
DYEAR=2005
DGENRE=Blues
TTITLE0=Better Together
TTITLE1=Never Know
TTITLE2=Banana Pancakes
TTITLE3=Good People
TTITLE4=No Other Way
TTITLE5=Sitting, Waiting, Wishing
TTITLE6=Staple It Together
TTITLE7=Situations
TTITLE8=Crying Shame
TTITLE9=If I Could
TTITLE10=Breakdown
TTITLE11=Belle
TTITLE12=Do You Remember
TTITLE13=Constellations
EXTD=
EXTT0=
EXTT1=
EXTT2=
EXTT3=
EXTT4=
EXTT5=
EXTT6=
EXTT7=
EXTT8=
EXTT9=
EXTT10=
EXTT11=
EXTT12=
EXTT13=
PLAYORDER=
